#!OML:ASF C:\Vicon Data\Big\jianyuan-13\jianyuan\Session 1\Capture.male.ASF
:FULLY-SPECIFIED
:DEGREES
56
root -8.652030 17.890568 -21.113872 7.087390 13.041482 3.023043
lowerback -4.659276 0.904457 -2.448043 
upperback 3.990113 1.420887 -0.303004 
thorax 6.725810 0.591541 1.203738 
lowerneck -1.237338 -4.006434 3.124840 
upperneck 14.404573 -5.478782 -0.757736 
head 4.907461 -2.550099 -1.056623 
rclavicle 0.000000 0.000000 
rhumerus -36.245787 -15.012765 -81.986352 
rradius 38.495069 
rwrist 22.578771 
rhand -18.727381 -19.116260 
rfingers 0.000000 
rthumb 7.568317 -48.960903 
lclavicle 0.000000 0.000000 
lhumerus -34.156243 27.940097 73.900557 
lradius 27.606286 
lwrist -51.251279 
lhand -18.885345 1.874787 
lfingers 0.000000 
lthumb 7.415807 31.724842 
rfemur -24.022172 5.093383 20.451411 
rtibia 30.786422 
rfoot -16.492047 -8.656251 
rtoes -21.349430 
lfemur -56.278633 9.991671 -20.340630 
ltibia 97.427695 
lfoot -9.615491 -6.233776 
ltoes -46.814183 
57
root -8.677024 17.910836 -21.062343 6.899451 13.184808 3.248857
lowerback -4.236860 0.977587 -2.666402 
upperback 4.161752 1.534944 -0.460589 
thorax 6.659430 0.641476 1.165837 
lowerneck -1.247792 -4.055878 3.094550 
upperneck 14.307155 -5.564776 -0.573978 
head 4.878040 -2.585563 -0.990651 
rclavicle 0.000000 0.000000 
rhumerus -35.998567 -14.418481 -82.364875 
rradius 38.818170 
rwrist 22.318317 
rhand -18.644586 -19.396858 
rfingers 0.000000 
rthumb 7.648187 -49.238562 
lclavicle 0.000000 0.000000 
lhumerus -33.612666 27.377050 74.167619 
lradius 27.794071 
lwrist -50.981860 
lhand -18.757809 1.545868 
lfingers 0.000000 
lthumb 7.538908 31.391535 
rfemur -23.300793 5.078039 20.363199 
rtibia 30.346003 
rfoot -16.548211 -8.783070 
rtoes -21.176370 
lfemur -58.606749 10.187863 -20.700515 
ltibia 98.493222 
lfoot -10.074367 -6.807916 
ltoes -46.609107 
58
root -8.700250 17.931342 -21.009644 6.800365 13.214647 3.499888
lowerback -3.905762 1.042677 -2.938565 
upperback 4.244786 1.639661 -0.593964 
thorax 6.550004 0.684907 1.182480 
lowerneck -1.096433 -4.072405 3.027719 
upperneck 14.241077 -5.585837 -0.487958 
head 4.827099 -2.596189 -0.944603 
rclavicle 0.000000 0.000000 
rhumerus -35.826565 -13.967548 -82.800507 
rradius 39.067855 
rwrist 22.490713 
rhand -18.771031 -19.127973 
rfingers 0.000000 
rthumb 7.526149 -48.974075 
lclavicle 0.000000 0.000000 
lhumerus -33.211821 26.552941 74.520713 
lradius 27.921727 
lwrist -50.604812 
lhand -18.853494 1.806367 
lfingers 0.000000 
lthumb 7.446524 31.655306 
rfemur -22.656000 4.996045 20.258485 
rtibia 29.838496 
rfoot -16.522262 -8.805746 
rtoes -21.406940 
lfemur -60.931302 10.424116 -21.099795 
ltibia 99.328595 
lfoot -10.592860 -7.086848 
ltoes -47.013266 
59
root -8.726415 17.952616 -20.954769 6.794191 13.052990 3.733985
lowerback -3.725909 1.179717 -3.249454 
upperback 4.335791 1.847011 -0.715581 
thorax 6.530380 0.775194 1.245151 
lowerneck -1.061316 -4.091780 2.872039 
upperneck 14.186023 -5.617968 -0.343851 
head 4.808117 -2.613387 -0.867901 
rclavicle 0.000000 0.000000 
rhumerus -35.620884 -13.470116 -83.084167 
rradius 39.409340 
rwrist 22.463550 
rhand -18.555442 -18.725624 
rfingers 0.000000 
rthumb 7.734252 -48.564131 
lclavicle 0.000000 0.000000 
lhumerus -32.774556 26.058456 74.780217 
lradius 28.099695 
lwrist -49.859359 
lhand -18.579388 1.537025 
lfingers 0.000000 
lthumb 7.711103 31.376387 
rfemur -22.136964 5.130193 20.147786 
rtibia 29.361467 
rfoot -16.553301 -8.812419 
rtoes -21.390744 
lfemur -63.186802 10.700795 -21.461254 
ltibia 99.865295 
lfoot -10.990271 -7.319928 
ltoes -46.468173 
60
root -8.753590 17.971145 -20.898101 6.700931 12.967746 3.958642
lowerback -3.496337 1.245059 -3.517708 
upperback 4.437363 1.955482 -0.887431 
thorax 6.499856 0.820227 1.220750 
lowerneck -0.984854 -4.069603 2.922126 
upperneck 14.139347 -5.596546 -0.262645 
head 4.777048 -2.597078 -0.844982 
rclavicle 0.000000 0.000000 
rhumerus -35.310858 -12.973503 -83.576780 
rradius 39.674000 
rwrist 22.243511 
rhand -18.667983 -18.788303 
rfingers 0.000000 
rthumb 7.625659 -48.630825 
lclavicle 0.000000 0.000000 
lhumerus -32.469882 25.645114 74.913660 
lradius 28.284339 
lwrist -49.473156 
lhand -18.994181 1.916477 
lfingers 0.000000 
lthumb 7.310787 31.770138 
rfemur -21.540248 5.370713 20.050306 
rtibia 28.931346 
rfoot -16.592355 -8.952783 
rtoes -20.764423 
lfemur -65.257593 11.023489 -21.832323 
ltibia 100.112584 
lfoot -11.404164 -7.488697 
ltoes -46.374577 
61
root -8.774137 17.988768 -20.842425 6.518584 12.964157 4.151507
lowerback -3.169795 1.282474 -3.732599 
upperback 4.551955 2.014133 -1.002280 
thorax 6.428744 0.842415 1.218654 
lowerneck -0.928049 -4.039606 2.925823 
upperneck 14.102011 -5.542451 -0.345443 
head 4.749818 -2.575130 -0.868876 
rclavicle 0.000000 0.000000 
rhumerus -35.054443 -12.660182 -83.838954 
rradius 39.872574 
rwrist 22.523878 
rhand -18.562010 -18.291968 
rfingers 0.000000 
rthumb 7.727928 -48.130749 
lclavicle 0.000000 0.000000 
lhumerus -32.247916 25.966398 74.786130 
lradius 28.311972 
lwrist -49.684839 
lhand -18.812906 1.763320 
lfingers 0.000000 
lthumb 7.485703 31.610867 
rfemur -20.801908 5.233438 20.038371 
rtibia 28.428039 
rfoot -16.623278 -8.945961 
rtoes -21.401535 
lfemur -67.034073 11.090608 -22.065982 
ltibia 100.003493 
lfoot -11.688659 -7.668798 
ltoes -46.186773 
62
root -8.800451 18.004855 -20.781721 6.147377 13.017666 4.278106
lowerback -2.669029 1.314699 -3.931242 
upperback 4.660335 2.052872 -1.101290 
thorax 6.251325 0.857479 1.217081 
lowerneck -0.706960 -4.012470 2.882768 
upperneck 14.069560 -5.491605 -0.362052 
head 4.695073 -2.554242 -0.857699 
rclavicle 0.000000 0.000000 
rhumerus -34.859429 -12.395525 -84.197465 
rradius 40.234389 
rwrist 22.134722 
rhand -18.554826 -18.517931 
rfingers 0.000000 
rthumb 7.734867 -48.356492 
lclavicle 0.000000 0.000000 
lhumerus -32.102303 25.689289 74.720981 
lradius 28.446577 
lwrist -49.340980 
lhand -18.851815 1.767263 
lfingers 0.000000 
lthumb 7.448173 31.616157 
rfemur -19.839793 5.452238 20.081224 
rtibia 27.904512 
rfoot -16.765355 -9.301457 
rtoes -21.707361 
lfemur -68.411603 11.031168 -22.164363 
ltibia 99.495281 
lfoot -11.956056 -8.002706 
ltoes -45.567389 
63
root -8.816352 18.019756 -20.724471 5.937476 13.060454 4.557752
lowerback -2.342473 1.329870 -4.220339 
upperback 4.795468 2.082773 -1.210808 
thorax 6.201361 0.861209 1.259086 
lowerneck -0.759795 -3.990674 2.814378 
upperneck 14.140862 -5.452489 -0.432090 
head 4.732437 -2.540503 -0.870982 
rclavicle 0.000000 0.000000 
rhumerus -34.558522 -12.105235 -84.369422 
rradius 40.515601 
rwrist 21.992485 
rhand -18.504797 -18.583596 
rfingers 0.000000 
rthumb 7.783136 -48.420333 
lclavicle 0.000000 0.000000 
lhumerus -31.866603 25.705358 74.766011 
lradius 28.513682 
lwrist -49.046729 
lhand -18.881231 1.907237 
lfingers 0.000000 
lthumb 7.419781 31.757093 
rfemur -19.080948 5.463196 19.934785 
rtibia 27.490708 
rfoot -16.845756 -9.374752 
rtoes -21.679478 
lfemur -69.702741 10.833565 -22.481984 
ltibia 98.612631 
lfoot -12.168718 -8.177463 
ltoes -46.627191 
64
root -8.831808 18.032388 -20.659981 5.698351 13.154286 4.692021
lowerback -2.091380 1.315854 -4.333430 
upperback 4.898585 2.065957 -1.323809 
thorax 6.168375 0.850347 1.197630 
lowerneck -0.670774 -3.959086 2.803694 
upperneck 14.143646 -5.403695 -0.448055 
head 4.716345 -2.518039 -0.870034 
rclavicle 0.000000 0.000000 
rhumerus -34.356211 -12.040830 -84.566005 
rradius 40.784751 
rwrist 21.902756 
rhand -18.466012 -18.596405 
rfingers 0.000000 
rthumb 7.820545 -48.431797 
lclavicle 0.000000 0.000000 
lhumerus -31.737542 25.895979 74.585333 
lradius 28.577807 
lwrist -48.762527 
lhand -18.741388 1.750592 
lfingers 0.000000 
lthumb 7.554780 31.595692 
rfemur -18.341802 5.386828 19.951965 
rtibia 27.137703 
rfoot -16.930650 -9.421933 
rtoes -21.931654 
lfemur -70.819577 10.491607 -22.510970 
ltibia 97.431911 
lfoot -12.104422 -8.701255 
ltoes -46.244782 
65
root -8.848059 18.043715 -20.598919 5.481571 13.284005 4.815369
lowerback -1.800886 1.307967 -4.516951 
upperback 4.950741 2.050745 -1.347348 
thorax 6.053263 0.836774 1.267017 
lowerneck -0.621743 -3.959194 2.715249 
upperneck 14.256880 -5.388563 -0.527419 
head 4.748805 -2.517243 -0.881784 
rclavicle 0.000000 0.000000 
rhumerus -34.202941 -11.929552 -84.648240 
rradius 41.057444 
rwrist 21.771851 
rhand -18.503074 -18.612684 
rfingers 0.000000 
rthumb 7.784828 -48.449302 
lclavicle 0.000000 0.000000 
lhumerus -31.697685 25.963644 74.616184 
lradius 28.610241 
lwrist -48.930267 
lhand -18.735783 1.945045 
lfingers 0.000000 
lthumb 7.560210 31.789929 
rfemur -17.632954 5.502705 19.970555 
rtibia 26.827886 
rfoot -17.113350 -9.652838 
rtoes -21.964417 
lfemur -71.719843 10.117129 -22.563141 
ltibia 95.900498 
lfoot -12.025546 -9.229345 
ltoes -46.520746 
